<svg width="67" height="77" viewBox="0 0 67 77" fill="none" xmlns="http://www.w3.org/2000/svg">
<g clip-path="url(#clip0)" filter="url(#filter0_d)">
<path d="M21.2172 32.3915H14.398V31.9217H20.7453V10.9927H20.8053V10.5229H21.2172V32.3915Z" fill="#DDDDDD"/>
<path d="M54.2932 32.3915H47.474V10.5229H47.924V10.9927H47.9459V31.9217H54.2932V32.3915Z" fill="#DDDDDD"/>
<path d="M21.2172 10.9248H11.2666V8.89087H21.2172V10.9248ZM11.7385 10.455H20.7398V9.36881H11.7385V10.455Z" fill="#DDDDDD"/>
<path d="M57.4246 10.9248H47.474V8.89087H57.4246V10.9248ZM47.9349 10.455H56.9363V9.36881H47.9349V10.455Z" fill="#DDDDDD"/>
<path d="M25.3687 13.2519H24.8969V8.88525H30.846V9.35505H25.3687V13.2519Z" fill="#DDDDDD"/>
<path d="M25.3687 18.7917H24.8969V14.425H30.846V14.8921H25.3687V18.7917Z" fill="#DDDDDD"/>
<path d="M25.3687 24.3288H24.8969V19.9622H30.846V20.432H25.3687V24.3288Z" fill="#DDDDDD"/>
<path d="M23.4266 7.4978V29.4994H25.1342V29.0296H23.8958V7.9676H32.4689V29.0296H26.6371L26.0152 29.4994H32.9408V7.4978H23.4266Z" fill="#DDDDDD"/>
<path d="M25.3687 30.0343H24.8969V25.4993H30.846V25.9691H25.3687V30.0343Z" fill="#DDDDDD"/>
<path d="M38.148 13.2519H37.6761V8.88525H43.6225V9.35505H38.148V13.2519Z" fill="#DDDDDD"/>
<path d="M38.148 18.7917H37.6761V14.425H43.6225V14.8921H38.148V18.7917Z" fill="#DDDDDD"/>
<path d="M38.148 24.3288H37.6761V19.9622H43.6225V20.432H38.148V24.3288Z" fill="#DDDDDD"/>
<path d="M35.884 7.4978V29.4994H37.9107V29.0296H36.3532V7.9676H44.9263V29.0296H39.4164L38.7944 29.4994H45.3982V7.4978H35.884Z" fill="#DDDDDD"/>
<path d="M38.148 30.0343H37.6761V25.4993H43.6225V25.9691H38.148V30.0343Z" fill="#DDDDDD"/>
<path d="M14.8999 25.4856H14.428V32.1387H14.8999V25.4856Z" fill="#DDDDDD"/>
<path d="M54.2905 25.4856H53.8186V32.1387H54.2905V25.4856Z" fill="#DDDDDD"/>
<path d="M14.8999 10.8704H14.428V17.6919H14.8999V10.8704Z" fill="#DDDDDD"/>
<path d="M54.2905 10.7048H53.8186V17.6947H54.2905V10.7048Z" fill="#DDDDDD"/>
<path d="M14.5398 17.2466H5.66391V17.6946H14.5398V17.2466Z" fill="#DDDDDD"/>
<path d="M62.9209 17.2466H54.045V17.6946H62.9209V17.2466Z" fill="#DDDDDD"/>
<path d="M40.0055 4.68701V5.15409H47.474V31.9215H21.2172V5.15409H40.1583V4.68701H20.7453V32.3913H47.9459V4.68701H40.0055Z" fill="#DDDDDD"/>
<path d="M28.4483 4.91259V-0.0107422H40.2401V4.90173L28.4483 4.91259ZM39.7682 4.93703V0.469913H28.9202V4.9479" fill="#DDDDDD"/>
<path d="M12.5923 39.5903C14.7908 39.5903 17.1284 40.3208 18.7323 41.8959L16.8775 44.9074C15.8218 43.995 14.2425 43.2401 12.7859 43.2401C9.51269 43.2401 8.14884 45.5456 8.14884 47.8946C8.14884 50.3114 9.61634 52.7989 12.7859 52.7989C14.4225 52.7989 16.0155 51.9082 17.1502 50.7921L19.2124 53.7113C18.3611 54.5952 17.3356 55.2946 16.2002 55.7656C15.0648 56.2367 13.8439 56.4692 12.6141 56.4486C7.34417 56.4486 4.02184 52.8206 4.02184 47.9842C4.00002 43.2401 7.52693 39.5903 12.5923 39.5903Z" fill="#C79205"/>
<path d="M21.3427 39.8645H25.3551V52.7526H32.0434V56.1742H21.3427V39.8645Z" fill="#C79205"/>
<path d="M33.6718 39.8645H37.6815V50.1837C37.6815 51.8945 38.8026 52.8069 40.5211 52.8069C42.2395 52.8069 43.3633 51.8945 43.3633 50.1837V39.8645H47.373V50.1837C47.373 53.8551 44.6699 56.4567 40.5538 56.4567C36.3832 56.4567 33.68 53.8551 33.68 50.1837L33.6718 39.8645Z" fill="#C79205"/>
<path d="M50.7418 39.8645H56.7672C60.0405 39.8645 62.3345 41.3255 62.3345 44.1307C62.3464 44.8241 62.1766 45.5086 61.8418 46.1167C61.5069 46.7248 61.0186 47.2355 60.4251 47.5985V47.6446C62.3045 48.2149 62.9918 49.8795 62.9918 51.3161C62.9918 54.8735 60.0132 56.1742 56.759 56.1742H50.7418V39.8645ZM56.8136 46.1836C57.8201 46.1836 58.2566 45.4532 58.2566 44.6792C58.2566 43.9053 57.8201 43.2861 56.7427 43.2861H54.7542V46.1836H56.8136ZM57.1573 52.7526C57.3878 52.7675 57.6189 52.7336 57.8354 52.6532C58.0518 52.5728 58.2487 52.4477 58.4131 52.286C58.5775 52.1244 58.7057 51.93 58.7892 51.7156C58.8727 51.5011 58.9096 51.2715 58.8976 51.0418C58.8976 50.1294 58.352 49.3772 57.1791 49.3772H54.7542V52.7526H57.1573Z" fill="#C79205"/>
<path d="M4.45006 61.3068H7.09592C7.59569 61.2722 8.09749 61.3331 8.57433 61.486C9.43355 61.8146 9.97636 62.5885 9.97636 63.6883C9.97636 64.503 9.59449 65.3693 8.83891 65.7522V65.7712C8.94371 65.9172 9.03936 66.0696 9.12532 66.2274L10.6037 68.8723H8.53068L7.18048 66.3224H6.31034V68.8723H4.45006V61.3068ZM7.11774 64.7365C7.24548 64.751 7.37486 64.7371 7.49656 64.6959C7.61827 64.6546 7.72927 64.587 7.82161 64.4979C7.91394 64.4089 7.9853 64.3006 8.03056 64.1807C8.07582 64.0609 8.09384 63.9327 8.08334 63.8051C8.08334 63.4222 7.98788 63.1371 7.63873 62.9904C7.41334 62.9099 7.17412 62.8748 6.93499 62.8872H6.31034V64.7284L7.11774 64.7365Z" fill="#FDFBFB"/>
<path d="M11.6239 61.3069H16.3865V62.8955H13.4842V64.2696H15.8V65.8582H13.4842V67.2866H16.5338V68.8725H11.6239V61.3069Z" fill="#FDFBFB"/>
<path d="M18.3095 66.5208C18.8137 66.978 19.457 67.2542 20.137 67.3056C20.658 67.3056 20.9253 67.072 20.9253 66.776C20.9253 65.7061 17.5648 65.8772 17.5648 63.5174C17.5648 62.1188 18.7241 61.1982 20.3198 61.1982C21.1917 61.188 22.0378 61.4929 22.7011 62.0564L21.9128 63.5689C21.4442 63.1647 20.852 62.9302 20.2325 62.9036C19.6706 62.9036 19.4142 63.1345 19.4142 63.4467C19.4142 64.533 22.7747 64.2614 22.7747 66.6647C22.7747 67.9356 21.8282 69.0245 20.0743 69.0245C19.0489 69.0336 18.0605 68.6438 17.3193 67.9383L18.3095 66.5208Z" fill="#FDFBFB"/>
<path d="M24.144 61.3069H26.0043V68.8725H24.144V61.3069Z" fill="#FDFBFB"/>
<path d="M27.78 61.3069H30.4777C32.8699 61.3069 34.4001 62.6946 34.4001 65.0734C34.4001 67.4522 32.8699 68.8752 30.4777 68.8752H27.7773L27.78 61.3069ZM30.4068 67.2811C31.6915 67.2811 32.4798 66.5181 32.4798 65.068C32.4798 63.6178 31.6615 62.8955 30.4068 62.8955H29.6403V67.2866L30.4068 67.2811Z" fill="#FDFBFB"/>
<path d="M35.794 61.3069H40.5702V62.8955H37.6543V64.2696H39.9728V65.8582H37.6543V67.2866H40.7065V68.8725H35.7967L35.794 61.3069Z" fill="#FDFBFB"/>
<path d="M42.0758 61.3069H43.958L46.0637 64.8371C46.2991 65.2556 46.5121 65.6862 46.702 66.127H46.7211C46.7211 66.127 46.6365 65.3124 46.6365 64.8371V61.3069H48.4968V68.8725H46.6256L44.5117 65.3422C44.2761 64.9229 44.063 64.4914 43.8734 64.0496H43.8434C43.8434 64.0496 43.9279 64.8643 43.9279 65.3422V68.8725H42.0677L42.0758 61.3069Z" fill="#FDFBFB"/>
<path d="M53.854 61.1791C54.9071 61.1572 55.9281 61.5404 56.7045 62.249L55.8452 63.6449C55.3157 63.1787 54.642 62.9066 53.9359 62.8736C52.4165 62.8736 51.7892 63.9409 51.7892 65.0325C51.7892 66.1242 52.4711 67.3082 53.9359 67.3082C54.7047 67.2673 55.4283 66.9339 55.9571 66.3767L56.9145 67.7345C56.5195 68.1451 56.0434 68.4699 55.5163 68.6886C54.9891 68.9073 54.4223 69.0152 53.8513 69.0054C51.3964 69.0054 49.8661 67.3245 49.8661 65.0787C49.8689 62.8736 51.5055 61.1791 53.854 61.1791Z" fill="#FDFBFB"/>
<path d="M58.0438 61.3069H62.8036V62.8955H59.9041V64.2696H62.2199V65.8582H59.9041V67.2866H62.9536V68.8725H58.0438V61.3069Z" fill="#FDFBFB"/>
</g>
<defs>
<filter id="filter0_d" x="0" y="0" width="67" height="77" filterUnits="userSpaceOnUse" color-interpolation-filters="sRGB">
<feFlood flood-opacity="0" result="BackgroundImageFix"/>
<feColorMatrix in="SourceAlpha" type="matrix" values="0 0 0 0 0 0 0 0 0 0 0 0 0 0 0 0 0 0 127 0"/>
<feOffset dy="4"/>
<feGaussianBlur stdDeviation="2"/>
<feColorMatrix type="matrix" values="0 0 0 0 0 0 0 0 0 0 0 0 0 0 0 0 0 0 0.25 0"/>
<feBlend mode="normal" in2="BackgroundImageFix" result="effect1_dropShadow"/>
<feBlend mode="normal" in="SourceGraphic" in2="effect1_dropShadow" result="shape"/>
</filter>
<clipPath id="clip0">
<rect width="59" height="69" fill="white" transform="translate(4)"/>
</clipPath>
</defs>
</svg>
