<svg width="15" height="9" viewBox="0 0 15 9" fill="none" xmlns="http://www.w3.org/2000/svg">
<path d="M0.74 0.88H1.69V5.37C1.69 6.06333 1.84 6.57 2.14 6.89C2.44 7.21 2.93 7.37 3.61 7.37C4.31 7.37 4.80333 7.20667 5.09 6.88C5.38333 6.55333 5.53 6.05 5.53 5.37V0.88H6.48V5.12C6.48 6.16 6.26333 6.92667 5.83 7.42C5.39667 7.90667 4.65667 8.15 3.61 8.15C2.59667 8.15 1.86333 7.91333 1.41 7.44C0.963333 6.96 0.74 6.22 0.74 5.22V0.88ZM11.4968 0.88L14.2768 8H13.2268L12.4368 5.82H9.4468L8.6368 8H7.6368L10.4368 0.88H11.4968ZM12.1568 5.07L10.9468 1.78L9.7168 5.07H12.1568Z" fill="#DDDDDD"/>
</svg>
